<svg version="1" xmlns="http://www.w3.org/2000/svg" width="3333.333" height="3333.333" viewBox="0 0 2500.000000 2500.000000"><path d="M1232.4 97c-9 2.3-23.4 9.6-29.8 15-10 8.3-17.8 20.8-21.8 34.7-1.8 6.3-2.2 10.2-2.2 20.8.1 11.3.4 14.1 2.7 21 4.6 14 13.3 25.8 25.8 35.1 18.3 13.5 46.7 15.6 70.4 5.3 6.4-2.8 16.5-10.2 21.9-15.9 7.9-8.5 15.8-25.1 18.1-38 5-27.6-13.4-59.4-41.9-73-14.7-7-29.4-8.7-43.2-5zM1834.3 160.5c-24.4 6.5-38.3 19.8-42.8 40.8-1.6 7.9-1.1 22.5 1 29.7 4.3 13.9 14.4 26.9 25.2 32.3 12.4 6.3 32.4 8.1 44.6 3.8 7.1-2.4 17.8-9.7 22.5-15.2 1.4-1.7 3.1-3.6 3.7-4.3 4.5-4.5 14.5-25.8 14.5-30.9 0-6.8-7.5-24-14.3-33.2-7.7-10.2-19.3-19-29.1-22.1-6.8-2.1-18.9-2.5-25.3-.9zM645.5 162.1c-7.4 1-18.1 4.5-24.1 7.9-10.8 6.2-20.6 20.1-23.7 33.6-3.4 14.4-1.1 32.1 5.6 43.3 8.8 14.7 26.6 25 44.3 25.7 18.8.7 35.2-7.1 47.4-22.6 7.1-8.9 10-18.2 10-32 0-14.6-3.1-24.2-11-34.3-11.8-14.8-32-23.9-48.5-21.6zM1684.7 402.6c-.1.1-2.9.4-6.2.7-27.4 2.6-52.8 19-63.8 41.3-7.7 15.4-10.7 25.8-11.3 38.5-.4 10 2 23 6 32.8 10.3 25.3 34.2 46.7 60.6 54.2 9.3 2.7 14.2 3.3 25.6 3.2 8.6-.1 11.2-.6 17.7-3.1 11.3-4.4 22.1-11.5 31.8-21.2 10-9.9 14.1-15.4 19.7-26.5 7-13.9 8.7-21.7 8.6-39 0-14.1-1.8-21.1-8.9-35-7-13.6-15.8-24.2-26-31.1-11.6-7.9-31-14-46.3-14.7-4-.2-7.4-.2-7.5-.1zM796 403.7c-15.1 1.7-38 13.7-49.8 26.2-9.2 9.8-18.7 27.6-20.6 38.7-.3 1.6-.9 4.7-1.2 6.9-1 5.3-1.1 20.7-.2 27 2.6 18.7 12.9 37.3 26.9 49 15.3 12.7 24.7 17.6 39.4 20.5 6 1.2 21.3 1.5 27 .6 20.4-3.4 38.7-12.8 52.5-26.8 8.8-9 17.4-23.4 19.7-33.1.2-1.2.9-4.2 1.5-6.7.5-2.5 1.1-10.6 1.1-18 .2-10.7-.2-15-1.8-20.5-8.8-31.5-36.4-56.2-70.5-63-4.2-.8-19.1-1.3-24-.8zM1240 470.6c-31.7 5.6-60.3 23.8-76.3 48.4-7.9 12.2-11.5 21.8-14.3 38-.7 4.3-.8 28.6-.1 29.7.3.5.8 2.7 1.2 5 1.4 9.4 6.8 22 14.2 33.1 9.9 14.9 26.8 30.3 43.3 39.5 7.5 4.1 8.5 4.4 24 5.3 29.1 1.8 41.5.3 55.9-6.6 3.4-1.7 6.3-3 6.6-3 1.7 0 15.4-9.9 21-15.1 26.2-24.7 38.1-61.8 30.5-95.4-2.3-10.1-9.9-27-16.3-36.5-9.6-14-26-26-46.7-34.2-6.9-2.7-23.4-7.6-28.5-8.4-1.6-.2-3.9-.6-5-.8-1.1-.2-5.4.3-9.5 1zM2183.8 635.5c-.1.1-3 .6-6.2 1-16.5 1.8-35.1 13-45.8 27.4-9.4 12.5-13.3 25.5-13.1 43.4.3 27 13.9 49.2 37.5 61 17.3 8.6 30.2 10.3 46.8 6.1 21.2-5.4 39.1-19.5 47.9-37.9 5.1-10.4 6.2-16 6.4-29.7.1-15.8-1.3-22.3-7.7-34.3-4.1-7.9-17.1-20.8-26.2-26.2-8.7-5-21.7-9.3-30.4-9.9-3.6-.3-7-.7-7.7-.9-.6-.2-1.3-.2-1.5 0zM294.7 641.2c-7.4 1.9-19.9 7.8-27.2 12.8-5.7 3.9-13.7 12.8-17.5 19.4-3.7 6.5-7.9 18.2-8.8 24.6-.9 5.7-.8 21.3.1 26.5 2.6 15.7 10.9 29.8 23.5 39.9 13.5 10.9 28.5 15.9 45.7 15.1 12.6-.6 15.1-1.1 24.6-4.8 21.2-8.3 35.8-24 41.3-44.2.9-3.3 2-7.1 2.4-8.5 1.5-5.4.7-23.3-1.2-29.5-11.3-35.9-49.8-59.7-82.9-51.3zM1433.3 738.2c-7 .6-17.2 2.2-25.8 4.2-12.5 2.8-35.8 12.2-47 19-29.3 17.7-56.3 49.1-68.5 79.6-1.2 3-2.6 6.4-3.1 7.5-2 4.5-6 18.4-8.1 28.4-1.8 8.6-2.2 13.9-2.2 28.6-.1 20.7.5 26.8 3.9 39.9 8 30.8 22.9 58.6 41.6 77.5 25.3 25.6 61.5 44.8 93.9 49.7 1.9.3 4.1.7 4.8.9 2.9 1 17.6 1.9 29.7 1.9 27.2-.1 53.2-7.2 77.6-21.2 2-1.1 4.7-2.6 6-3.4 6.7-3.8 19.4-13.4 26.2-19.8 18.5-17.3 33.2-39.4 42.4-64 3-7.9 7.9-25.8 8.7-32 .3-2.5.9-5.6 1.2-7 1.1-4.2 1.3-38.1.3-44-4.2-25-7.9-37-17-54.5-16.3-31.3-42.2-56.9-73.9-72.9-3-1.6-6.4-3.3-7.4-3.8-5.8-3.1-28.8-10.4-38.6-12.3-12.2-2.4-32-3.4-44.7-2.3zM1034.5 740.1c-73.3 7-131 57.8-147.9 130.4-5.7 24.5-5.9 55.3-.5 76.5 4.9 19.1 16.8 45.1 27.4 59.9 42.7 59.4 124.6 84.7 193.8 60 16.5-5.9 36.6-17 49.2-27.2 27.6-22.4 47-52.1 56.9-87 11.8-41.1 8-82.6-11-119.9-6-11.8-13.3-24.1-14.6-24.6-.4-.2-.8-.8-.8-1.4 0-1.7-13.3-16.8-20.5-23.3-7.4-6.6-21.5-17-27.3-20-2-1.1-5.3-2.9-7.2-4-8.6-5.2-32.1-13.6-44-15.9-20.5-3.9-37.3-5-53.5-3.5zM1830.8 809.5c-.2.1-3 .5-6.3.8-19.3 1.8-44.4 14.2-58.9 29.2-11.3 11.7-19.8 27.1-24.3 44.3-2.2 8.4-2.6 11.9-2.7 25.7-.1 17.7 1.1 24.5 6.6 38.9 7.1 18.3 18.7 32.5 35.9 43.8 11.7 7.7 19.2 11.3 29.6 14.4 7.5 2.2 10.8 2.6 22.3 2.7 7.4.1 14.9-.2 16.5-.6 1.7-.3 4.6-.9 6.5-1.3 10-1.8 25.3-8.4 36.4-15.8 22.8-15.2 38.1-37.5 43.2-63.1 1.2-5.9 1.1-28.8-.2-36.4-1.7-9.5-4.7-18.9-8.7-26.6-1.8-3.3-3.4-6.2-3.7-6.5-.3-.3-1.8-2.5-3.4-5-4.4-6.8-19.4-21.1-27.6-26.5-12-7.8-26-13.7-38-16-6.6-1.2-22.5-2.6-23.2-2zM658.7 810.6c-.1.2-2.5.6-5.2 1-7.3.9-23.9 6.1-32.1 9.8-21.2 9.8-40.3 27.8-50.1 47.1-2.9 5.6-6.9 18.1-7.8 23.8-.3 2.7-.9 5.9-1.1 7-1 4.4-1.2 20.4-.3 26.6 1.7 11.8 7.8 28.4 14.2 38.6 14.4 23 37 39.2 63.7 45.6 8.9 2.2 34.5 1.6 45.3-1 33.1-7.9 60.5-35.2 72.6-72.1 6.9-21.5 6.4-36.9-2.2-58-14.1-34.5-45.8-60.1-83.7-67.7-2.9-.6-12.9-1.1-13.3-.7zM1628.8 1081.5c-.2.2-3 .6-6.3 1-38.9 4.3-76.8 24.6-102.2 54.7-28.9 34.1-43.6 74.8-42.8 117.8.2 8.5.6 17.1 1 19 4.1 23 8.7 37.2 17.2 52.3 1.8 3.3 3.3 6.1 3.3 6.3 0 .2 1.9 3.4 4.1 7.1 8.1 13.3 18.7 25.6 32.9 38.3 11.7 10.4 35.9 23.8 54 29.9 14.9 5 24 7.2 38 8.9 11.7 1.4 39.5.7 49-1.3 1.4-.3 3.9-.8 5.5-1 6.1-.9 23.9-6.7 32.8-10.7 10.2-4.6 18.2-9.3 30.1-17.6 28.1-19.5 49.4-48.8 61.1-83.6 2.9-8.7 6.9-27.3 8-37.6.8-7.2.9-29.8.2-34.5-.3-1.7-1.1-6.4-1.7-10.5-3.7-23.4-11.9-42.9-28-67-16.3-24.2-35.5-40.8-62.5-54-25.4-12.5-49.2-17.8-79.2-17.8-7.8 0-14.3.2-14.5.3zM840.8 1082.5c-.1.2-3.3.6-6.9.9-9.6.8-25.9 4.5-39.9 9.1-9.2 3.1-27.3 12.7-37.7 20.2-12.5 8.8-31.7 27.9-37.3 36.9-.8 1.3-1.8 2.4-2.2 2.4-.5 0-.8.4-.8.9s-1.8 3.6-4 6.9c-11.2 16.7-23.1 47.1-25.4 64.7-.3 2.2-1 6.5-1.5 9.5-1 5.9-.8 37.5.3 42.5 1.1 5.3 2.9 14 3.2 15.2.9 4.9 6.5 19.8 11.2 29.8 6.8 14.4 12.5 24.4 18.8 32.8 5.8 7.6 21 22.9 28.4 28.5 3 2.3 6 4.6 6.5 5 2.5 2 18.7 11.1 26 14.6 7 3.4 25.5 10 31 11.2 21.7 4.5 24.3 4.8 43.5 4.9 25.7 0 35.3-1.4 55.7-8 22.5-7.4 39.7-18.2 62.1-39 11-10.2 22.8-25.7 29.7-39.2 1.7-3.2 3.3-6 3.6-6.3.3-.3 1.4-2.8 2.4-5.5 1-2.8 2.2-5.5 2.6-6 2.3-3.1 8.7-27.8 10.4-39.8.3-2 .7-5.4 1.1-7.5.7-5.1.7-25.6-.1-33.9-3.7-38.1-23.1-77.9-50.8-103.9-4.1-3.8-8.2-7.6-9.3-8.4-9.5-7.5-19.1-13.6-30.9-19.5-24.3-12.4-48.1-18.4-74.7-19-8-.2-14.8-.2-15 0zM2120 1162.6c-42.8 9.3-72.9 44.7-75.7 89.2-.5 8.9-.4 9.5 2.8 17 6.8 15.7 16.3 31 24.5 39.8 11.5 12.2 30.3 21.9 45.9 23.9 6 .8 19.8.7 24 0 29.5-5.4 54.4-22.9 66-46.6 5.4-11 6.7-17.2 7.1-34.9.4-14.3.1-17.5-1.6-24-5.1-18.3-14.1-31.6-31.3-45.7-8.1-6.8-25.6-15.1-38.6-18.4-8.6-2.2-14-2.3-23.1-.3zM350.4 1169c-11.3 2.9-21.6 7.3-29.2 12.4-6.7 4.4-16.5 13.9-20 19.5-.9 1.4-1.9 2.8-2.2 3.1-1.2 1.2-6.2 11.3-8.4 17.2-7.6 20.3-7.7 45.4-.1 64.1 3.8 9.3 9.5 17.7 17 25.2 12.7 12.7 22 18.7 36.2 23.2 7.7 2.4 10.4 2.7 22.3 2.8 14.6 0 19.7-.6 28.9-3.6 22-7.2 40.8-22.9 49.7-41.9 2.2-4.8 5.5-14.2 5.2-15-.1-.3.4-1.5 1.1-2.7 1.9-3.7 3.2-12.3 3.2-22 0-5.1-.2-9.6-.4-10.1-.3-.4-.8-2.8-1.2-5.2-.9-6.4-5.9-18.3-11-26.5-12.9-20.7-33.2-35.3-57.3-41-8.2-2-25.4-1.7-33.8.5zM2433.5 1193.5c-7.8 1.6-10.5 2.7-19.2 8.1-11 6.9-18 15.8-22 28.3-2 6.4-2.4 23.2-.8 30.9 4.5 20.8 19.9 37 38.1 40.1 7.4 1.2 23 1.2 28.6 0 6.6-1.5 15.8-6.4 21.6-11.5 15.8-13.9 22.9-33.5 18.8-51.9-1.3-5.7-5.4-16.4-6.7-17.5-.3-.3-1.3-1.9-2.2-3.5-2.5-4.8-11.6-13-18.7-16.8-12.1-6.6-24.9-8.7-37.5-6.2zM46.2 1198.6c-9.5 1.6-14.3 3.6-21.7 8.9C8.3 1219-.8 1237.8.4 1257.1c.6 10.2 3.2 17.9 8.9 26.4 10.8 16.1 23.4 23.3 41.7 24.1 11.5.4 19.4-1.2 30-6.3 9.2-4.4 19.4-14.2 23.4-22.4 4.4-9.1 6.8-27 5.1-37.4-3.6-21.3-25.3-40.9-47.8-43-3.4-.4-6.6-.8-7.2-.9-.5-.2-4.3.3-8.3 1zM1434 1424.1c-3.6.4-7.8.9-9.5 1.2-10 1.7-33.3 8.2-34.9 9.8-.6.5-1.6.9-2.3.9-2 0-16 6.8-24.3 11.8-14.1 8.5-26.7 18.6-36.9 29.6-2.5 2.8-5.5 5.9-6.6 7.1-9.9 10.4-23.5 33.9-29.4 50.7-3.5 10-8.8 31.7-9.8 40.5-1.6 12.8-.7 35.7 1.7 46.8.5 2.2 1.1 5.1 1.4 6.5 4.1 21 17.8 49.5 32.5 68 20.2 25.3 43.3 42.8 71.5 54 8.2 3.2 24.6 7.5 32.5 8.5 2.4.3 4.7.8 5.2 1 1.2.8 16.6 1.9 25.9 1.9 24.4 0 44.3-4.8 68.5-16.3 34.6-16.6 63-44.1 80.7-78.1 4.7-8.9 11-24.8 12.4-31.2.2-1 .6-2.6.8-3.6 3.6-15.1 4.1-19.7 4.1-39.7-.1-25.2-1.7-36.3-8.2-54.9-21.2-61-78.8-106.8-143.8-114.2-8.2-.9-23.7-1.1-31.5-.3zM1042.8 1424.5c-.2.2-3.2.6-6.8.9-13.8 1.3-31.1 5.6-46 11.5-48 18.7-86.7 62.3-101 113.5-1.2 4.3-2.4 9.1-2.6 10.5-.2 1.4-.6 3.7-.9 5.1-2 11.1-2.6 36.2-1.1 49 4.7 41 29.1 84.1 63.1 111.1 24.5 19.5 50.4 30.6 83 35.4 1.7.3 5.5.8 8.5 1.3 6.1.9 23 .8 31.2-.2 30-3.6 56.4-14.2 81.7-32.8 9.6-7.2 25.7-22.5 32.8-31.3 5.3-6.5 15.4-21.8 18.2-27.5 1.2-2.5 2.6-5.2 3.1-6 5.2-8.4 12.9-34 14.7-48.5 1-8.5 1-33.4 0-43-6.5-63.8-56.8-122.1-122.8-142.4-11-3.4-29.5-6.2-42.5-6.5-6.8-.2-12.5-.2-12.6-.1zM1829.8 1488.5c-.2.2-2.3.5-4.8.8-11.9 1.4-31.1 8.7-42.5 16.2-23.1 15.3-39 42.7-42.1 72.4-1.3 12.8-.4 25.1 2.8 38 2.7 11.2 6 18.9 12.4 28.6 8.2 12.4 16.2 20 30.9 29.1 17.3 10.6 30.7 14.7 48.5 14.7 13.1 0 18.8-1 32.9-5.5 34.5-11.2 61.5-40 68.2-72.8 2.5-12.2 1.7-39.4-1.5-49.5-4.8-15.5-12.9-28.8-25.1-41.1-15-15.3-33.3-24.9-56.9-30-2.3-.5-22.4-1.3-22.8-.9zM666.9 1490.5c-.3.2-3.8.5-7.9.6-19 .5-37.1 6.4-51.5 16.7-22.9 16.3-38.2 41.2-43.2 70.2-.3 1.4-.6 7.9-.8 14.5-.7 23.3 6.2 42.6 21.8 61.1 11.2 13.4 20 20.5 32.6 26.7 36.8 18 85.7 10.2 115.1-18.3 12.2-11.9 18.2-22 24.9-41.8 5.9-17.9 6.6-30.7 2.6-50.4-1-5-5.7-17.2-8.8-22.8-13.7-25.1-34.9-43.4-59.7-51.5-7.8-2.6-10.3-3.1-18.5-4.1-2.7-.4-5.3-.8-5.6-1-.3-.2-.8-.2-1 .1zM2181 1721.1c-25.7 3.1-47.8 21.7-57.4 48.3-3.9 10.7-4.9 24.1-2.6 34.1 1.4 6.1 7.4 20.5 11 26.2 11.8 18.6 34.2 30.4 58 30.5 5.2 0 10.6-.2 12-.5 21.3-4.6 28-8.8 44.5-27.3 8.3-9.3 12.4-24.2 12-43.6-.1-6.8-.5-13.7-.8-15.4-.4-1.6-.9-5.6-1.2-8.8-.3-3.3-1-6.6-1.5-7.5-1.1-2.1-17.3-17.8-23-22.3-10.7-8.4-20.6-12.4-33.7-13.3-4.9-.4-9.5-.8-10.3-.9-.8-.1-4 .1-7 .5zM301.9 1724.4c-.2.2-2.2.7-4.3 1-9.6 1.5-27 11.1-35.5 19.6-16.9 16.9-23.2 41.3-17.6 68.5 1 5 5.9 15.8 9.9 21.8 9.1 13.7 28.6 26 45.2 28.3 27.8 3.9 56.3-8.7 71.3-31.5 13.2-20.1 15.1-46.5 4.7-66.8-4.7-9.2-6.6-11.8-13.3-18.6-13.9-14.1-30.3-21.5-49.4-22.3-5.8-.2-10.8-.2-11 0zM1231.5 1829.6c-1.1.2-4.5.9-7.5 1.5-6.9 1.4-24.9 8.2-30.9 11.7-15.7 9-30.4 25.3-37.8 42-17.1 38.5-11 83.7 15.1 112 9 9.6 25.2 20.8 38 26.1 18 7.4 40.1 8.3 60.6 2.4 38-10.9 67.4-41.6 72.9-76.3 1.2-7.5 1.5-29 .5-37-1.6-13-9-30.4-17.8-41.9-7.5-9.7-21.8-22.4-29.6-26.3-1.4-.7-3.6-2-5-2.9-1.4-.9-6.1-3-10.5-4.7-7-2.7-9.9-3.6-19-5.9-2.6-.7-26.3-1.2-29-.7zM1682.5 1927.2c-12.5 1.2-19.7 3.7-34.6 12.1-38.5 21.6-52.1 77.8-28.4 117.2 5.6 9.2 11.8 15.9 22.3 23.7 16.8 12.6 27.7 16.5 47.2 16.9 36.4.6 72.4-24 83.9-57.4 2.8-8 3.6-14.4 3.5-29.2 0-15.3-1.4-21.9-7.6-34.5-3.6-7.5-6.4-11.5-14.3-20.8-3.3-3.9-14.6-12.6-21-16.4-15.9-9.2-34-13.3-51-11.6zM792.5 1930.9c-3.9 1-10.6 3.5-14.8 5.5-4.3 2-8.1 3.6-8.3 3.6-.3 0-3.1 1.7-6.2 3.9-12.4 8.4-22.9 21.6-29.2 36.7-1.7 4.2-3.4 8.4-3.6 9.3-.2.9-1.3 5-2.4 9.1-1.8 7.1-2.8 13.6-3.5 24.3-.4 5.3.8 8.8 7.7 22.2 12.9 25.2 31.2 42.8 51.8 49.4 11.8 3.9 35.4 4.7 47 1.7 7.7-2 16.9-5.5 19.1-7.3.8-.7 1.9-1.3 2.3-1.3 1.4 0 12.2-7.9 17.2-12.7 13.5-12.8 23.2-31.1 24.9-47.1 1.1-9.2 1.2-22.2.3-28.1-4.6-30.6-28.6-57.3-60.8-67.6-11.6-3.7-30.9-4.5-41.5-1.6zM1835.5 2228.2c-25.5 10.5-42.1 33.9-41.1 57.7.5 10.3 1 12.3 5.8 22.1 6.9 14.2 18.5 23.9 33.3 28.1 7.2 2 24.6 1.8 31.5-.5 11.3-3.7 18.4-7.9 25.7-15.2 8.6-8.8 13-19.4 13.9-34.4.6-8.3.4-10.7-1.6-17.3-1.3-4.2-2.9-8.2-3.6-8.8-.8-.6-1.4-1.8-1.4-2.6 0-2.3-16-17.5-22.3-21.2-7.2-4.2-22.2-10-27.9-10.7-3.4-.4-6 .2-12.3 2.8zM644.8 2231.1c-2.6.4-6.2 1.4-7.9 2.3-1.8.9-3.6 1.6-4.2 1.6-1.6 0-10.9 7.1-15.8 12-7.3 7.5-14.6 19.1-18.6 30-1.8 5-1.9 6.1-.8 11.5 3.6 16.9 12.6 31.1 27.2 42.6 3.9 3.1 15.3 8.1 21.3 9.4 11.2 2.3 23.4.6 33-4.8 8.2-4.5 10.7-6.2 14.8-10.1 10.8-10.2 15.2-20.7 15.7-37.6.4-16-5.6-31.2-16.5-42.2-4.3-4.3-8.7-7.6-12.4-9.3-9.9-4.5-25.8-6.9-35.8-5.4zM1228 2267.1c-20.1 5.5-36.9 18.5-44.4 34.3-14.6 30.8-10.7 58.7 11.3 81.9 9.4 9.9 21.6 17 34.8 20.2 10.4 2.5 27.2 1.6 37-2 12.8-4.6 18.3-8.3 30.9-20.9 8.7-8.7 10.2-10.8 11.3-15.1 1.3-5.2 1.8-7.1 2.5-10.5.3-1.1 1.6-6.2 3-11.3l2.6-9.4-2.1-7.4c-6-22-12.5-35-21.9-43.9-5.9-5.6-20.2-13.2-29.7-15.9-9.4-2.5-26-2.6-35.3 0z"/></svg>